# MagicaVoxel @ Ephtracy

# group
o 

# material
mtllib ItemBox.mtl
usemtl palette

# normals
vn -1 0 0
vn 1 0 0
vn 0 0 1
vn 0 0 -1
vn 0 -1 0
vn 0 1 0

# texcoords
vt 0.00195312 0.5
vt 0.994141 0.5

# verts
v -0.5 0 0.5
v -0.5 0 -0.5
v -0.5 1 0.5
v -0.5 1 -0.5
v 0.5 0 0.5
v 0.5 0 -0.5
v 0.5 1 0.5
v 0.5 1 -0.5
v -0.5 0 0.5
v -0.5 1 0.5
v -0.4 0.6 0.5
v -0.4 0.8 0.5
v -0.3 0.1 0.5
v -0.3 0.6 0.5
v -0.3 0.8 0.5
v -0.3 0.9 0.5
v -0.1 0.1 0.5
v -0.1 0.4 0.5
v -0.1 0.5 0.5
v -0.1 0.7 0.5
v -0.1 0.8 0.5
v -0.1 0.9 0.5
v 0.1 0.5 0.5
v 0.1 0.7 0.5
v 0.3 0.4 0.5
v 0.3 0.5 0.5
v 0.3 0.7 0.5
v 0.3 0.8 0.5
v 0.4 0.5 0.5
v 0.4 0.7 0.5
v 0.5 0 0.5
v 0.5 1 0.5
v -0.5 0 -0.5
v -0.5 1 -0.5
v 0.5 0 -0.5
v 0.5 1 -0.5
v -0.5 0 0.5
v 0.5 0 0.5
v -0.5 0 -0.5
v 0.5 0 -0.5
v -0.5 1 0.5
v 0.5 1 0.5
v -0.5 1 -0.5
v 0.5 1 -0.5

# faces
f 3/1/1 2/1/1 1/1/1
f 4/1/1 2/1/1 3/1/1
f 5/1/2 6/1/2 7/1/2
f 7/1/2 6/1/2 8/1/2
f 11/1/3 10/1/3 9/1/3
f 12/1/3 10/1/3 11/1/3
f 13/1/3 11/1/3 9/1/3
f 14/2/3 12/2/3 11/2/3
f 14/1/3 11/1/3 13/1/3
f 15/1/3 10/1/3 12/1/3
f 15/2/3 12/2/3 14/2/3
f 16/1/3 10/1/3 15/1/3
f 17/2/3 14/2/3 13/2/3
f 17/1/3 13/1/3 9/1/3
f 17/2/3 16/2/3 15/2/3
f 17/2/3 15/2/3 14/2/3
f 18/2/3 16/2/3 17/2/3
f 19/2/3 16/2/3 18/2/3
f 20/2/3 16/2/3 19/2/3
f 21/2/3 16/2/3 20/2/3
f 22/1/3 10/1/3 16/1/3
f 22/2/3 16/2/3 21/2/3
f 23/2/3 19/2/3 18/2/3
f 23/1/3 20/1/3 19/1/3
f 24/2/3 21/2/3 20/2/3
f 24/1/3 20/1/3 23/1/3
f 25/2/3 23/2/3 18/2/3
f 25/1/3 18/1/3 17/1/3
f 25/2/3 24/2/3 23/2/3
f 26/2/3 24/2/3 25/2/3
f 27/2/3 21/2/3 24/2/3
f 27/2/3 24/2/3 26/2/3
f 28/1/3 22/1/3 21/1/3
f 28/2/3 21/2/3 27/2/3
f 29/1/3 26/1/3 25/1/3
f 29/2/3 27/2/3 26/2/3
f 30/1/3 28/1/3 27/1/3
f 30/2/3 27/2/3 29/2/3
f 31/1/3 17/1/3 9/1/3
f 31/1/3 29/1/3 25/1/3
f 31/1/3 30/1/3 29/1/3
f 31/1/3 25/1/3 17/1/3
f 32/1/3 22/1/3 28/1/3
f 32/1/3 30/1/3 31/1/3
f 32/1/3 28/1/3 30/1/3
f 32/1/3 10/1/3 22/1/3
f 33/1/4 34/1/4 35/1/4
f 35/1/4 34/1/4 36/1/4
f 39/1/5 38/1/5 37/1/5
f 40/1/5 38/1/5 39/1/5
f 41/1/6 42/1/6 43/1/6
f 43/1/6 42/1/6 44/1/6
